<svg width="25" height="25" viewBox="0 0 25 25" fill="none" xmlns="http://www.w3.org/2000/svg">
<path d="M4.65317 22.8271L23.1678 13.5417C24.2219 13.0209 24.2219 11.9792 23.1678 11.4584L4.65213 2.17296C4.51942 2.11583 4.37669 2.0856 4.23221 2.08405C4.08774 2.08249 3.94439 2.10963 3.81048 2.16389C3.67657 2.21815 3.55476 2.29846 3.45212 2.40015C3.34948 2.50184 3.26805 2.62289 3.21255 2.75629C3.13651 2.93546 3.10838 3.13338 3.13234 3.32921L4.06776 9.66463C4.10015 9.88292 4.20103 10.0853 4.35585 10.2426C4.51068 10.3998 4.71145 10.5038 4.92922 10.5396L16.8386 12.5L4.93026 14.4605C4.71249 14.4962 4.51172 14.6003 4.35689 14.7575C4.20207 14.9148 4.10119 15.1172 4.0688 15.3355L3.13338 21.6719C3.09644 21.9622 3.176 22.2552 3.35463 22.487C3.53326 22.7187 3.79642 22.8702 4.08651 22.9084C4.27922 22.9323 4.47505 22.9042 4.65317 22.8271Z" fill="#8D31D6"/>
</svg>
