<svg width="713" height="186" viewBox="0 0 713 186" fill="none" xmlns="http://www.w3.org/2000/svg">
<path d="M696.769 51.8038C701.56 51.8038 705.463 52.9189 708.478 55.149C711.493 57.3792 713 60.7865 713 65.3707C713 69.9963 711.493 73.4242 708.478 75.6544C705.463 77.8846 701.56 78.9997 696.769 78.9997H674.096V35.6349H683.264V51.8038H696.769ZM695.964 71.5038C698.442 71.5038 700.362 70.9875 701.725 69.955C703.129 68.9225 703.832 67.3738 703.832 65.3088C703.832 63.2438 703.129 61.6951 701.725 60.6626C700.362 59.6301 698.442 59.1138 695.964 59.1138H683.264V71.5038H695.964Z" fill="white"/>
<path d="M667.395 35.6349V43.1308H651.722V78.9997H642.554V43.1308H626.88V35.6349H667.395Z" fill="white"/>
<path d="M606.042 35.6349H620.167V78.9997H611.308V42.0777L591.608 78.9997H577.36V35.6349H586.28V72.6808L606.042 35.6349Z" fill="white"/>
<path d="M525.695 35.6349H566.953V78.9997H557.785V43.1308H534.863V78.9997H525.695V35.6349Z" fill="white"/>
<path d="M509.561 35.6349H519.535L505.225 66.8575C503.118 71.5244 500.95 74.7871 498.72 76.6456C496.531 78.4628 493.578 79.3714 489.861 79.3714C487.672 79.3714 485.442 79.2268 483.171 78.9377V71.8135C485.648 72.02 487.362 72.1233 488.312 72.1233C489.923 72.1233 491.286 71.8135 492.401 71.194C493.557 70.5745 494.549 69.3975 495.375 67.6629L495.746 66.7336H491.72L473.754 35.6349H484.038L498.472 62.5211L509.561 35.6349Z" fill="white"/>
<path d="M460.853 78.9997L444.932 60.6626H438.551V78.9997H429.382V35.6349H438.551V53.6623H444.746L459.738 35.6349H470.579L451.932 56.6358L472.128 78.9997H460.853Z" fill="white"/>
<path d="M398.487 35.6349H408.461L394.151 66.8575C392.044 71.5244 389.876 74.7871 387.646 76.6456C385.457 78.4628 382.504 79.3714 378.787 79.3714C376.598 79.3714 374.368 79.2268 372.097 78.9377V71.8135C374.575 72.02 376.288 72.1233 377.238 72.1233C378.849 72.1233 380.212 71.8135 381.327 71.194C382.483 70.5745 383.475 69.3975 384.301 67.6629L384.672 66.7336H380.646L362.68 35.6349H372.964L387.398 62.5211L398.487 35.6349Z" fill="white"/>
<path d="M347.119 35.6349H356.287V78.9997H347.119V61.7157C342.411 62.7895 337.868 63.3264 333.49 63.3264C322.256 63.3264 316.64 58.7628 316.64 49.6355V35.6349H325.808V47.9629C325.808 50.8952 326.634 52.9395 328.286 54.0959C329.979 55.2523 332.602 55.8305 336.154 55.8305C339.995 55.8305 343.65 55.3142 347.119 54.2818V35.6349Z" fill="white"/>
<path d="M269.574 73.7342C265.444 69.6868 263.379 64.2146 263.379 57.3175C263.379 50.4204 265.444 44.9689 269.574 40.9628C273.704 36.9154 279.527 34.8917 287.044 34.8917C294.56 34.8917 300.384 36.9154 304.514 40.9628C308.685 44.9689 310.77 50.4204 310.77 57.3175C310.77 64.2146 308.685 69.6868 304.514 73.7342C300.384 77.7403 294.56 79.7433 287.044 79.7433C279.527 79.7433 273.704 77.7403 269.574 73.7342ZM276.326 46.4763C273.807 49.2434 272.547 52.8571 272.547 57.3175C272.547 61.7779 273.807 65.3916 276.326 68.1587C278.887 70.9258 282.459 72.3093 287.044 72.3093C291.628 72.3093 295.2 70.9258 297.761 68.1587C300.322 65.3916 301.602 61.7779 301.602 57.3175C301.602 52.8571 300.322 49.2434 297.761 46.4763C295.2 43.7092 291.628 42.3257 287.044 42.3257C282.459 42.3257 278.887 43.7092 276.326 46.4763Z" fill="white"/>
<path d="M263.254 78.9997H252.599L240.457 62.9547L228.315 78.9997H218.093L235.377 56.8836L219.394 35.6349H230.111L240.705 50.5648L251.484 35.6349H261.706L245.908 56.5739L263.254 78.9997Z" fill="white"/>
<path d="M493.4 122.254H499.595L485.037 158.371C483.632 162.047 482.104 164.545 480.452 165.867C478.8 167.188 476.24 167.849 472.771 167.849C471.325 167.849 469.962 167.767 468.682 167.601V163.203C469.921 163.327 471.16 163.389 472.399 163.389C474.381 163.389 475.868 162.997 476.859 162.212C477.85 161.427 478.821 159.899 479.771 157.628L480.948 154.716H478.036L463.292 122.254H469.487L482.373 152.114L493.4 122.254Z" fill="white"/>
<path d="M451.758 122.254H457.395V154.716H451.758V140.467H431.253V154.716H425.553V122.254H431.253V135.821H451.758V122.254Z" fill="white"/>
<path d="M408.155 122.254H416.642V154.716H411.128V126.157L392.357 154.716H383.87V122.254H389.384V150.813L408.155 122.254Z" fill="white"/>
<path d="M369.379 122.254H374.955V154.716H324.28V122.254H329.856V150.07H346.83V122.254H352.405V150.07H369.379V122.254Z" fill="white"/>
<path d="M300.62 121.511C305.576 121.511 309.334 122.564 311.895 124.67C314.455 126.777 315.735 129.833 315.735 133.839V154.716H310.47V147.84C309.231 150.235 307.352 152.114 304.832 153.477C302.313 154.799 299.298 155.459 295.788 155.459C291.699 155.459 288.643 154.613 286.619 152.919C284.595 151.226 283.583 148.996 283.583 146.229C283.583 143.214 284.802 140.901 287.239 139.291C289.717 137.68 293.433 136.668 298.389 136.255L310.036 135.326V132.662C310.036 130.597 309.231 128.904 307.62 127.582C306.051 126.26 303.717 125.6 300.62 125.6C297.894 125.6 295.643 126.116 293.867 127.148C292.091 128.181 291.079 129.73 290.832 131.795H285.504C285.752 128.284 287.239 125.703 289.964 124.051C292.731 122.358 296.283 121.511 300.62 121.511ZM297.336 151.433C301.26 151.433 304.357 150.441 306.629 148.459C308.9 146.477 310.036 143.916 310.036 140.777V138.919L299.071 139.848C292.504 140.344 289.221 142.388 289.221 145.981C289.221 147.592 289.882 148.913 291.203 149.946C292.566 150.937 294.611 151.433 297.336 151.433Z" fill="white"/>
<path d="M264.927 111.351H275.273L275.211 154.716H269.511L269.573 114.511L252.909 154.716H244.67L228.129 114.696V154.716H222.43V111.351H232.775L248.882 151.433L264.927 111.351Z" fill="white"/>
<mask id="mask0_256_2075" style="mask-type:alpha" maskUnits="userSpaceOnUse" x="0" y="0" width="186" height="186">
<path d="M0 68.8889C0 30.8426 30.8426 0 68.8889 0H117.111C155.157 0 186 30.8426 186 68.8889V117.111C186 155.157 155.157 186 117.111 186H68.8889C30.8426 186 0 155.157 0 117.111V68.8889Z" fill="#C479FF"/>
</mask>
<g mask="url(#mask0_256_2075)">
<path d="M0 68.8889C0 30.8426 30.8426 0 68.8889 0H117.111C155.157 0 186 30.8426 186 68.8889V117.111C186 155.157 155.157 186 117.111 186H68.8889C30.8426 186 0 155.157 0 117.111V68.8889Z" fill="white"/>
<path fill-rule="evenodd" clip-rule="evenodd" d="M95 51.5517C120.71 51.5517 141.552 30.7098 141.552 5C141.552 -20.7098 120.71 -41.5517 95 -41.5517C69.2902 -41.5517 48.4483 -20.7098 48.4483 5C48.4483 30.7098 69.2902 51.5517 95 51.5517ZM95 55C122.614 55 145 32.6142 145 5C145 -22.6142 122.614 -45 95 -45C67.3858 -45 45 -22.6142 45 5C45 32.6142 67.3858 55 95 55Z" fill="#C479FF"/>
<path fill-rule="evenodd" clip-rule="evenodd" d="M137.744 83.3183L144.603 88.64C148.19 91.4232 151 97.0924 151 101.545V131.682C151 134.614 148.539 137 145.516 137H130.891C127.867 137 125.406 134.614 125.406 131.682V128.136H59.5937V131.682C59.5937 134.614 57.1331 137 54.1094 137H39.4844C36.4607 137 34 134.614 34 131.682V101.545C34 97.0924 36.8098 91.4232 40.3966 88.64L47.2576 83.3183L47.3398 83.2491L40.9542 82.01C40.0986 81.8451 39.4844 81.1183 39.4844 80.2727V74.9545C39.4844 74.4844 39.677 74.0335 40.0198 73.701C40.3627 73.3686 40.8277 73.1818 41.3125 73.1818H50.455C50.9398 73.1818 51.4048 73.3686 51.7476 73.701C52.0905 74.0335 52.2831 74.4844 52.2831 74.9545V78.0604L52.4092 77.8955C52.5259 77.5948 52.7266 77.3315 52.9887 77.135C54.018 75.7221 54.8991 74.3057 55.4732 73.0825L58.5609 66.4951C60.5298 62.292 65.8021 59 70.5625 59H114.438C119.198 59 124.47 62.292 126.439 66.4951L129.529 73.0843C130.103 74.3075 130.984 75.7221 132.013 77.135C132.276 77.331 132.477 77.5945 132.593 77.8955L132.719 78.0604V74.9545C132.719 74.4844 132.911 74.0335 133.254 73.701C133.597 73.3686 134.062 73.1818 134.547 73.1818H143.688C144.172 73.1818 144.637 73.3686 144.98 73.701C145.323 74.0335 145.516 74.4844 145.516 74.9545V80.2727C145.516 80.6823 145.37 81.0794 145.102 81.3962C144.835 81.713 144.462 81.93 144.048 82.01L137.662 83.2491L137.744 83.3183ZM61.2647 124.591H122.821L121.214 123.033C120.141 121.992 117.783 121.045 116.266 121.045H67.8203C66.303 121.045 63.9447 121.992 62.8716 123.033L61.2647 124.591ZM129.867 80.2727H55.1331C53.3617 82.5436 51.3379 84.6921 49.5427 86.089L47.3435 87.7944L60.2738 92.8095L60.2775 92.8112C60.5053 92.9003 60.7124 93.0329 60.8862 93.2012L62.7144 94.974L65.835 98H87.0156C87.2557 97.9998 87.4935 98.0455 87.7153 98.1347C87.9371 98.2238 88.1386 98.3545 88.3081 98.5194L92.5 102.584L96.6919 98.5194C96.8614 98.3545 97.0629 98.2238 97.2847 98.1347C97.5065 98.0455 97.7443 97.9998 97.9844 98H119.165L122.287 94.9722L124.116 93.1995C124.289 93.0311 124.496 92.8985 124.724 92.8095L124.728 92.8077L137.658 87.7926L135.459 86.0873C133.662 84.6921 131.638 82.5436 129.867 80.2727ZM141.859 98C143.856 98 145.04 97.0498 145.408 95.1973C144.547 93.6745 143.477 92.3078 142.318 91.409L140.94 90.3383L126.434 95.9649L126.163 96.2273L127.991 98H141.859ZM61.8862 67.9629L58.7985 74.5504C58.4786 75.2346 58.0581 75.9739 57.5993 76.7273H127.401C126.942 75.9739 126.523 75.2346 126.201 74.5504L123.112 67.9611C121.735 65.0255 117.763 62.5455 114.438 62.5455H70.5625C67.2371 62.5455 63.2646 65.0255 61.8862 67.9629ZM44.0583 90.3383L42.6799 91.409C41.5209 92.3078 40.4533 93.6745 39.5922 95.1973C39.9597 97.0498 41.1443 98 43.1406 98H57.0088L58.8369 96.2273L58.5663 95.9649L44.0583 90.3383ZM39.4844 133.455H54.1094C55.1167 133.455 55.9375 132.659 55.9375 131.682V128.136H43.1406C41.1566 128.13 39.2298 127.491 37.6563 126.319V131.682C37.6563 132.659 38.4771 133.455 39.4844 133.455ZM129.063 131.682C129.063 132.659 129.883 133.455 130.891 133.455H145.516C146.523 133.455 147.344 132.659 147.344 131.682V126.319C145.812 127.443 143.925 128.136 141.859 128.136H129.063V131.682ZM123.799 120.526L127.991 124.591H141.859C144.883 124.591 147.344 122.205 147.344 119.273V110.409L109.784 109.687L147.344 106.864V101.545C147.344 100.92 147.241 100.244 147.097 99.5547C145.927 100.739 144.225 101.545 141.859 101.545H127.234C126.994 101.546 126.757 101.5 126.535 101.411C126.313 101.322 126.111 101.191 125.942 101.026L123.578 98.7339L121.214 101.026C120.873 101.359 120.406 101.545 119.922 101.545H98.7412L92.5 107.98L86.2588 101.545H65.0781C64.838 101.546 64.6002 101.5 64.3784 101.411C64.1566 101.322 63.9552 101.191 63.7856 101.026L61.4219 98.7339L59.0581 101.026C58.7154 101.359 58.2504 101.545 57.7656 101.545H43.1406C40.775 101.545 39.073 100.739 37.903 99.5547C37.7586 100.244 37.6563 100.92 37.6563 101.545V106.864L75.216 109.687L37.6563 110.409V119.273C37.6563 122.205 40.1169 124.591 43.1406 124.591H56.0947L60.2866 120.526C62.0654 118.801 65.3048 117.5 67.8203 117.5H116.266C118.781 117.5 122.021 118.801 123.799 120.526Z" fill="#C479FF"/>
<path d="M93 35L97.5915 47.0435L110 51.5L97.5915 55.9565L93 68L88.4085 55.9565L76 51.5L88.4085 47.0435L93 35Z" fill="#C479FF"/>
<path fill-rule="evenodd" clip-rule="evenodd" d="M93 15L102.993 42.0066L130 52L102.993 61.9934L93 89L83.0066 61.9934L56 52L83.0066 42.0066L93 15ZM88.3576 47.3576L75.8116 52L88.3576 56.6424L93 69.1884L97.6424 56.6424L110.188 52L97.6424 47.3576L93 34.8116L88.3576 47.3576Z" fill="white"/>
<path fill-rule="evenodd" clip-rule="evenodd" d="M-1 177.695L33.4508 140L36 142.305L1.54916 180L-1 177.695Z" fill="#C479FF"/>
<path fill-rule="evenodd" clip-rule="evenodd" d="M187 177.695L153.48 140L151 142.305L184.52 180L187 177.695Z" fill="#C479FF"/>
<path fill-rule="evenodd" clip-rule="evenodd" d="M91 163V136H95V163H91Z" fill="#C479FF"/>
<path fill-rule="evenodd" clip-rule="evenodd" d="M91 203V175H95V203H91Z" fill="#C479FF"/>
</g>
</svg>
