<svg width="30" height="30" viewBox="0 0 30 30" fill="none" xmlns="http://www.w3.org/2000/svg">
<path fill-rule="evenodd" clip-rule="evenodd" d="M26.25 14.375C26.2543 16.0248 25.8688 17.6524 25.125 19.125C23.3262 22.7242 19.6486 24.9984 15.625 25C13.9752 25.0043 12.3476 24.6188 10.875 23.875L3.75 26.25L6.125 19.125C5.38116 17.6524 4.9957 16.0248 5 14.375C5.00156 10.3514 7.27584 6.67381 10.875 4.87501C12.3476 4.13117 13.9752 3.7457 15.625 3.75001H16.25C21.6448 4.04763 25.9524 8.35524 26.25 13.75V14.375V14.375Z" stroke="#8D31D6" stroke-width="2" stroke-linecap="round" stroke-linejoin="round"/>
<circle cx="11.5" cy="14.5" r="1.5" fill="#8D31D6"/>
<circle cx="15.5" cy="14.5" r="1.5" fill="#8D31D6"/>
<circle cx="19.5" cy="14.5" r="1.5" fill="#8D31D6"/>
</svg>
