<svg width="25" height="25" viewBox="0 0 25 25" fill="none" xmlns="http://www.w3.org/2000/svg">
<mask id="mask0_173_856" style="mask-type:alpha" maskUnits="userSpaceOnUse" x="0" y="0" width="25" height="25">
<rect width="25" height="25" rx="5" fill="#C479FF"/>
</mask>
<g mask="url(#mask0_173_856)">
<rect width="25" height="25" rx="5" fill="#C479FF"/>
<path fill-rule="evenodd" clip-rule="evenodd" d="M12.5 14.375C13.5355 14.375 14.375 13.5355 14.375 12.5C14.375 11.4645 13.5355 10.625 12.5 10.625C11.4645 10.625 10.625 11.4645 10.625 12.5C10.625 13.5355 11.4645 14.375 12.5 14.375Z" stroke="white" stroke-linecap="round" stroke-linejoin="round"/>
<path fill-rule="evenodd" clip-rule="evenodd" d="M17.125 14.375C16.9548 14.7607 17.0365 15.2111 17.3312 15.5125L17.3688 15.55C17.6035 15.7845 17.7354 16.1026 17.7354 16.4344C17.7354 16.7661 17.6035 17.0843 17.3688 17.3187C17.1343 17.5535 16.8161 17.6854 16.4844 17.6854C16.1526 17.6854 15.8345 17.5535 15.6 17.3187L15.5625 17.2812C15.2611 16.9865 14.8107 16.9048 14.425 17.075C14.0472 17.2369 13.8016 17.6077 13.8 18.0187V18.125C13.8 18.8154 13.2404 19.375 12.55 19.375C11.8596 19.375 11.3 18.8154 11.3 18.125V18.0687C11.2901 17.6454 11.0224 17.2712 10.625 17.125C10.2393 16.9548 9.78887 17.0365 9.4875 17.3312L9.45 17.3688C9.21554 17.6035 8.89739 17.7354 8.56562 17.7354C8.23386 17.7354 7.91571 17.6035 7.68125 17.3688C7.44653 17.1343 7.31464 16.8161 7.31464 16.4844C7.31464 16.1526 7.44653 15.8345 7.68125 15.6L7.71875 15.5625C8.01354 15.2611 8.09522 14.8107 7.925 14.425C7.76308 14.0472 7.39228 13.8016 6.98125 13.8H6.875C6.18464 13.8 5.625 13.2404 5.625 12.55C5.625 11.8596 6.18464 11.3 6.875 11.3H6.93125C7.35458 11.2901 7.72883 11.0224 7.875 10.625C8.04522 10.2393 7.96354 9.78887 7.66875 9.4875L7.63125 9.45C7.39653 9.21554 7.26464 8.89739 7.26464 8.56562C7.26464 8.23386 7.39653 7.91571 7.63125 7.68125C7.86571 7.44653 8.18386 7.31464 8.51562 7.31464C8.84739 7.31464 9.16554 7.44653 9.4 7.68125L9.4375 7.71875C9.73887 8.01354 10.1893 8.09522 10.575 7.925H10.625C11.0028 7.76308 11.2484 7.39228 11.25 6.98125V6.875C11.25 6.18464 11.8096 5.625 12.5 5.625C13.1904 5.625 13.75 6.18464 13.75 6.875V6.93125C13.7516 7.34228 13.9972 7.71308 14.375 7.875C14.7607 8.04522 15.2111 7.96354 15.5125 7.66875L15.55 7.63125C15.7845 7.39653 16.1026 7.26464 16.4344 7.26464C16.7661 7.26464 17.0843 7.39653 17.3187 7.63125C17.5535 7.86571 17.6854 8.18386 17.6854 8.51562C17.6854 8.84739 17.5535 9.16554 17.3187 9.4L17.2812 9.4375C16.9865 9.73887 16.9048 10.1893 17.075 10.575V10.625C17.2369 11.0028 17.6077 11.2484 18.0187 11.25H18.125C18.8154 11.25 19.375 11.8096 19.375 12.5C19.375 13.1904 18.8154 13.75 18.125 13.75H18.0687C17.6577 13.7516 17.2869 13.9972 17.125 14.375Z" stroke="white" stroke-linecap="round" stroke-linejoin="round"/>
</g>
</svg>
