<svg width="25" height="25" viewBox="0 0 25 25" fill="none" xmlns="http://www.w3.org/2000/svg">
<mask id="mask0_173_849" style="mask-type:alpha" maskUnits="userSpaceOnUse" x="0" y="0" width="25" height="25">
<rect width="25" height="25" rx="5" fill="#C479FF"/>
</mask>
<g mask="url(#mask0_173_849)">
<rect width="25" height="25" rx="5" fill="#C479FF"/>
<path fill-rule="evenodd" clip-rule="evenodd" d="M19 12.1389C19.0025 13.0921 18.7798 14.0325 18.35 14.8833C17.3107 16.9629 15.1859 18.2769 12.8611 18.2778C11.9079 18.2803 10.9675 18.0576 10.1167 17.6278L6 19L7.37222 14.8833C6.94245 14.0325 6.71974 13.0921 6.72222 12.1389C6.72312 9.81414 8.03715 7.68933 10.1167 6.65002C10.9675 6.22025 11.9079 5.99754 12.8611 6.00002H13.2222C16.3392 6.17198 18.828 8.66082 19 11.7778V12.1389V12.1389Z" stroke="white" stroke-linecap="round" stroke-linejoin="round"/>
</g>
</svg>
