<svg width="22" height="22" viewBox="0 0 22 22" fill="none" xmlns="http://www.w3.org/2000/svg">
<path d="M7.64174 2.54564C7.16075 2.81704 6.99084 3.42699 7.26225 3.90798C7.53366 4.38898 8.1436 4.55888 8.6246 4.28747L7.64174 2.54564ZM16.8332 8.49989L15.8332 8.49938V8.49989H16.8332ZM15.8332 11.8332C15.8332 12.3855 16.2809 12.8332 16.8332 12.8332C17.3855 12.8332 17.8332 12.3855 17.8332 11.8332H15.8332ZM15.1665 16.1666C15.7188 16.1666 16.1665 15.7188 16.1665 15.1666C16.1665 14.6143 15.7188 14.1666 15.1665 14.1666V16.1666ZM2.6665 14.1666C2.11422 14.1666 1.6665 14.6143 1.6665 15.1666C1.6665 15.7188 2.11422 16.1666 2.6665 16.1666V14.1666ZM5.1665 8.49989H6.1665L6.1665 8.49863L5.1665 8.49989ZM6.70507 6.27529C6.95843 5.78455 6.76599 5.18134 6.27524 4.92798C5.7845 4.67463 5.18129 4.86707 4.92793 5.35781L6.70507 6.27529ZM13.3065 19.0017C13.5836 18.5239 13.421 17.912 12.9433 17.6349C12.4655 17.3578 11.8536 17.5204 11.5765 17.9981L13.3065 19.0017ZM10.4232 17.9981C10.146 17.5204 9.53413 17.3578 9.0564 17.6349C8.57867 17.912 8.41605 18.5239 8.69317 19.0017L10.4232 17.9981ZM8.6246 4.28747C10.1215 3.44285 11.9542 3.45665 13.4382 4.32372L14.4472 2.59688C12.3492 1.37103 9.75798 1.35152 7.64174 2.54564L8.6246 4.28747ZM13.4382 4.32372C14.9222 5.19078 15.834 6.78067 15.8332 8.49938L17.8332 8.5004C17.8344 6.0705 16.5452 3.82273 14.4472 2.59688L13.4382 4.32372ZM15.8332 8.49989V11.8332H17.8332V8.49989H15.8332ZM15.1665 14.1666H2.6665V16.1666H15.1665V14.1666ZM2.6665 16.1666C4.5995 16.1666 6.1665 14.5996 6.1665 12.6666H4.1665C4.1665 13.495 3.49493 14.1666 2.6665 14.1666V16.1666ZM6.1665 12.6666V8.49989H4.1665V12.6666H6.1665ZM6.1665 8.49863C6.16553 7.7251 6.35022 6.96263 6.70507 6.27529L4.92793 5.35781C4.42625 6.32957 4.16513 7.40754 4.1665 8.50115L6.1665 8.49863ZM11.5765 17.9981C11.4572 18.2037 11.2375 18.3303 10.9998 18.3303V20.3303C11.9506 20.3303 12.8294 19.8241 13.3065 19.0017L11.5765 17.9981ZM10.9998 18.3303C10.7621 18.3303 10.5424 18.2037 10.4232 17.9981L8.69317 19.0017C9.17023 19.8241 10.0491 20.3303 10.9998 20.3303V18.3303Z" fill="#C479FF"/>
<path d="M1.8335 1.83325L20.1668 20.1666" stroke="#C479FF" stroke-width="2" stroke-linecap="round" stroke-linejoin="round"/>
</svg>
