<svg width="19" height="19" viewBox="0 0 19 19" fill="none" xmlns="http://www.w3.org/2000/svg">
<g opacity="0.5">
<path fill-rule="evenodd" clip-rule="evenodd" d="M18.2082 15.0417C18.2082 15.9161 17.4993 16.625 16.6248 16.625H2.37484C1.50039 16.625 0.791504 15.9161 0.791504 15.0417V6.33333C0.791504 5.45888 1.50039 4.75 2.37484 4.75H5.5415L7.12484 2.375H11.8748L13.4582 4.75H16.6248C17.4993 4.75 18.2082 5.45888 18.2082 6.33333V15.0417Z" stroke="black" stroke-linecap="round" stroke-linejoin="round"/>
<path fill-rule="evenodd" clip-rule="evenodd" d="M9.50016 13.4583C11.2491 13.4583 12.6668 12.0406 12.6668 10.2917C12.6668 8.54276 11.2491 7.125 9.50016 7.125C7.75126 7.125 6.3335 8.54276 6.3335 10.2917C6.3335 12.0406 7.75126 13.4583 9.50016 13.4583Z" stroke="black" stroke-linecap="round" stroke-linejoin="round"/>
</g>
</svg>
