<svg width="25" height="25" viewBox="0 0 25 25" fill="none" xmlns="http://www.w3.org/2000/svg">
<mask id="mask0_173_834" style="mask-type:alpha" maskUnits="userSpaceOnUse" x="0" y="0" width="25" height="25">
<rect width="25" height="25" rx="5" fill="#C479FF"/>
</mask>
<g mask="url(#mask0_173_834)">
<rect width="25" height="25" rx="5" fill="#C479FF"/>
<path d="M3.8377 9V3H6.22513C7.18848 3 7.89005 3.15686 8.32984 3.47059C8.77662 3.78431 9 4.21569 9 4.76471C9 5.08964 8.90925 5.39496 8.72775 5.68067C8.54625 5.96639 8.24258 6.19608 7.81675 6.36975C7.39791 6.54342 6.82548 6.63025 6.09948 6.63025H5.41885V9H3.8377ZM3 8.10084V7.28571H7.03141V8.10084H3ZM3 6.63025V5.58824H6.06806V6.63025H3ZM5.94241 5.58824C6.24258 5.58824 6.50087 5.56303 6.71728 5.5126C6.93368 5.45658 7.10122 5.36975 7.2199 5.2521C7.33857 5.13445 7.39791 4.98599 7.39791 4.80672C7.39791 4.54902 7.29668 4.35854 7.09424 4.23529C6.8918 4.10644 6.57417 4.04202 6.14136 4.04202H5.41885V5.58824H5.94241Z" fill="white"/>
<path d="M38.1949 10.5186L36.4579 9.12876L36.437 9.1107L38.0542 8.78709C38.1591 8.76619 38.2535 8.70954 38.3213 8.6268C38.3891 8.54406 38.4261 8.44036 38.4259 8.33339V6.9445C38.4259 6.82171 38.3772 6.70396 38.2903 6.61713C38.2035 6.53031 38.0858 6.48154 37.963 6.48154H35.6482C35.5254 6.48154 35.4076 6.53031 35.3208 6.61713C35.234 6.70396 35.1852 6.82171 35.1852 6.9445V7.75561L35.1532 7.71255C35.1238 7.63394 35.073 7.56513 35.0065 7.51394C34.7458 7.14496 34.5227 6.77552 34.3773 6.45607L33.5949 4.73524C33.0963 3.63755 31.7611 2.77783 30.5556 2.77783H19.4444C18.2389 2.77783 16.9037 3.63755 16.4051 4.73524L15.6232 6.45561C15.4778 6.77505 15.2546 7.14496 14.994 7.51394C14.9276 7.56525 14.8768 7.63402 14.8472 7.71255L14.8153 7.75561V6.9445C14.8153 6.82171 14.7665 6.70396 14.6797 6.61713C14.5929 6.53031 14.4751 6.48154 14.3523 6.48154H12.037C11.9143 6.48154 11.7965 6.53031 11.7097 6.61713C11.6229 6.70396 11.5741 6.82171 11.5741 6.9445V8.33339C11.5741 8.55422 11.7296 8.74404 11.9463 8.78709L13.5634 9.1107L13.5426 9.12876L11.8051 10.5186C10.8968 11.2454 10.1852 12.726 10.1852 13.8889V21.7593C10.1852 22.5251 10.8083 23.1482 11.5741 23.1482H15.2778C16.0435 23.1482 16.6667 22.5251 16.6667 21.7593V20.8334H33.3333V21.7593C33.3333 22.5251 33.9565 23.1482 34.7222 23.1482H38.4259C39.1917 23.1482 39.8148 22.5251 39.8148 21.7593V13.8889C39.8148 12.726 39.1032 11.2454 38.1949 10.5186ZM33.988 19.9075L32.9264 18.8459C32.4759 18.3954 31.6556 18.0556 31.0185 18.0556H18.75C18.113 18.0556 17.2926 18.3954 16.8421 18.8459L15.7806 19.9075H12.5C11.7343 19.9075 11.1111 19.2843 11.1111 18.5186V16.2038H11.5741V16.6667C11.5741 17.688 12.4046 18.5186 13.4259 18.5186H14.8148C14.9376 18.5186 15.0554 18.4698 15.1422 18.383C15.229 18.2962 15.2778 18.1784 15.2778 18.0556C15.2778 17.9328 15.229 17.8151 15.1422 17.7282C15.0554 17.6414 14.9376 17.5926 14.8148 17.5926H13.4259C12.9153 17.5926 12.5 17.1774 12.5 16.6667V16.2038H13.4259C13.8102 16.2038 14.4074 16.451 14.6792 16.7227C14.7221 16.7659 14.7731 16.8001 14.8292 16.8235C14.8854 16.8468 14.9456 16.8589 15.0065 16.8589C15.0673 16.8589 15.1276 16.8468 15.1837 16.8235C15.2399 16.8001 15.2909 16.7659 15.3338 16.7227C15.3768 16.6798 15.411 16.6288 15.4343 16.5726C15.4576 16.5164 15.4695 16.4562 15.4695 16.3954C15.4695 16.3346 15.4576 16.2744 15.4343 16.2183C15.411 16.1621 15.3768 16.1111 15.3338 16.0681C14.8833 15.6176 14.0634 15.2778 13.4259 15.2778H11.1111V13.8889C11.1111 13.7255 11.137 13.5491 11.1736 13.369C11.4699 13.6783 11.9009 13.8889 12.5 13.8889H16.2037C16.3265 13.8889 16.4442 13.8401 16.531 13.7533L17.1296 13.1547L17.7282 13.7533C17.7712 13.7964 17.8222 13.8305 17.8784 13.8538C17.9345 13.8771 17.9948 13.889 18.0556 13.8889H23.4194L24.6727 15.1422C24.7156 15.1853 24.7666 15.2196 24.8228 15.2429C24.8789 15.2663 24.9392 15.2783 25 15.2783C25.0608 15.2783 25.1211 15.2663 25.1772 15.2429C25.2334 15.2196 25.2844 15.1853 25.3273 15.1422L26.5806 13.8889H31.9444C32.0671 13.8889 32.1852 13.8403 32.2718 13.7533L32.8704 13.1547L33.469 13.7533C33.5119 13.7964 33.5629 13.8305 33.6191 13.8538C33.6753 13.8771 33.7355 13.889 33.7963 13.8889H37.5C38.0991 13.8889 38.5301 13.6783 38.8264 13.369C38.863 13.5491 38.8889 13.7255 38.8889 13.8889V15.2778H36.5741C35.937 15.2778 35.1167 15.6176 34.6662 16.0681C34.6232 16.1111 34.5891 16.1621 34.5659 16.2183C34.5426 16.2744 34.5306 16.3346 34.5306 16.3954C34.5306 16.4562 34.5426 16.5164 34.5659 16.5726C34.5891 16.6287 34.6232 16.6798 34.6662 16.7227C34.7092 16.7657 34.7602 16.7998 34.8164 16.8231C34.8725 16.8463 34.9327 16.8583 34.9935 16.8583C35.0543 16.8583 35.1145 16.8463 35.1707 16.8231C35.2268 16.7998 35.2779 16.7657 35.3208 16.7227C35.5926 16.451 36.1898 16.2038 36.5741 16.2038H37.5V16.6667C37.5 17.1774 37.0847 17.5926 36.5741 17.5926H35.1852C35.0624 17.5926 34.9446 17.6414 34.8578 17.7282C34.771 17.8151 34.7222 17.9328 34.7222 18.0556C34.7222 18.1784 34.771 18.2962 34.8578 18.383C34.9446 18.4698 35.0624 18.5186 35.1852 18.5186H36.5741C37.5954 18.5186 38.4259 17.688 38.4259 16.6667V16.2038H38.8889V18.5186C38.8889 19.2843 38.2657 19.9075 37.5 19.9075H33.988ZM32.6787 19.9075H17.0898L17.4968 19.5005C17.7685 19.2288 18.3657 18.9815 18.75 18.9815H31.0185C31.4028 18.9815 32 19.2288 32.2718 19.5005L32.6787 19.9075ZM15.537 8.33339H34.463C34.9116 8.92644 35.4241 9.48756 35.8792 9.85191L36.4361 10.2973L33.1616 11.607L33.1607 11.6075C33.1029 11.6307 33.0505 11.6654 33.0065 11.7093L32.5435 12.1723L31.7528 12.963H26.3889C26.3281 12.963 26.2679 12.9749 26.2117 12.9982C26.1555 13.0215 26.1045 13.0556 26.0616 13.0987L25 14.1602L23.9384 13.0987C23.8955 13.0556 23.8445 13.0215 23.7883 12.9982C23.7321 12.9749 23.6719 12.963 23.6111 12.963H18.2472L17.4569 12.1727L16.994 11.7098C16.95 11.6658 16.8975 11.6312 16.8398 11.6079L16.8389 11.6075L13.5644 10.2977L14.1213 9.85237C14.5759 9.48755 15.0884 8.92644 15.537 8.33339ZM38.3986 12.2311C38.3056 12.7149 38.0056 12.963 37.5 12.963H33.988L33.525 12.5001L33.5935 12.4315L37.2671 10.9621L37.6162 11.2417C37.9097 11.4764 38.1806 11.8334 38.3986 12.2311ZM36.1111 7.40746H37.5V7.95376L36.1111 8.23154V7.40746ZM16.4653 6.83894L17.2472 5.11857C17.5963 4.35144 18.6023 3.70376 19.4444 3.70376H30.5556C31.3977 3.70376 32.4037 4.35144 32.7523 5.11811L33.5347 6.83894C33.6162 7.01765 33.7222 7.2107 33.8384 7.40746H16.1616C16.2778 7.2107 16.3843 7.01765 16.4653 6.83894ZM12.5 7.40746H13.8889V8.23154L12.5 7.95376V7.40746ZM12.3833 11.2417L12.7324 10.9621L16.4065 12.4315L16.475 12.5001L16.012 12.963H12.5C11.9944 12.963 11.6944 12.7149 11.6014 12.2311C11.8194 11.8334 12.0898 11.4764 12.3833 11.2417ZM15.2778 22.2223H11.5741C11.319 22.2223 11.1111 22.0144 11.1111 21.7593V20.3589C11.5096 20.6649 11.9976 20.8316 12.5 20.8334H15.7407V21.7593C15.7407 22.0144 15.5329 22.2223 15.2778 22.2223ZM38.4259 22.2223H34.7222C34.4671 22.2223 34.2593 22.0144 34.2593 21.7593V20.8334H37.5C38.0232 20.8334 38.5009 20.6524 38.8889 20.3589V21.7593C38.8889 22.0144 38.681 22.2223 38.4259 22.2223Z" fill="white"/>
</g>
</svg>
