<svg width="20" height="20" viewBox="0 0 20 20" fill="none" xmlns="http://www.w3.org/2000/svg">
<path d="M2.5 5H4.16667H17.5" stroke="#C479FF" stroke-width="2" stroke-linecap="round" stroke-linejoin="round"/>
<path d="M16.8332 5.00008C16.8332 4.4478 16.3855 4.00008 15.8332 4.00008C15.2809 4.00008 14.8332 4.4478 14.8332 5.00008H16.8332ZM5.1665 5.00008C5.1665 4.4478 4.71879 4.00008 4.1665 4.00008C3.61422 4.00008 3.1665 4.4478 3.1665 5.00008H5.1665ZM5.6665 5.00008C5.6665 5.55237 6.11422 6.00008 6.6665 6.00008C7.21879 6.00008 7.6665 5.55237 7.6665 5.00008H5.6665ZM12.3332 5.00008C12.3332 5.55237 12.7809 6.00008 13.3332 6.00008C13.8855 6.00008 14.3332 5.55237 14.3332 5.00008H12.3332ZM14.8332 5.00008V16.6667H16.8332V5.00008H14.8332ZM14.8332 16.6667C14.8332 17.0349 14.5347 17.3334 14.1665 17.3334V19.3334C15.6393 19.3334 16.8332 18.1395 16.8332 16.6667H14.8332ZM14.1665 17.3334H5.83317V19.3334H14.1665V17.3334ZM5.83317 17.3334C5.46498 17.3334 5.1665 17.0349 5.1665 16.6667H3.1665C3.1665 18.1395 4.36041 19.3334 5.83317 19.3334V17.3334ZM5.1665 16.6667V5.00008H3.1665V16.6667H5.1665ZM7.6665 5.00008V3.33341H5.6665V5.00008H7.6665ZM7.6665 3.33341C7.6665 2.96522 7.96498 2.66675 8.33317 2.66675V0.666748C6.86041 0.666748 5.6665 1.86066 5.6665 3.33341H7.6665ZM8.33317 2.66675H11.6665V0.666748H8.33317V2.66675ZM11.6665 2.66675C12.0347 2.66675 12.3332 2.96522 12.3332 3.33341H14.3332C14.3332 1.86066 13.1393 0.666748 11.6665 0.666748V2.66675ZM12.3332 3.33341V5.00008H14.3332V3.33341H12.3332Z" fill="#C479FF"/>
<path d="M8.3335 9.16675V14.1667" stroke="#C479FF" stroke-width="2" stroke-linecap="round" stroke-linejoin="round"/>
<path d="M11.6665 9.16675V14.1667" stroke="#C479FF" stroke-width="2" stroke-linecap="round" stroke-linejoin="round"/>
</svg>
